# xmcd
#
# Track frame offsets:
#	150
#	17625
#	33165
#	52145
#	64115
#	79155
#	90675
#	102915
#	112222
#	128952
#	140945
#	159757
#	176325
#	188522
#	208677
#
# Disc length: 3086 seconds
#
# Revision: 2
# Processed by: cddbd v1.5.2PL0 Copyright (c) Steve Scherf et al.
# Submitted via: audiograbber 1.83.01
#
DISCID=cd0c0c0f
DTITLE=Graeme Connors - One Of The Family
DYEAR=1998
DGENRE=Country
TTITLE0=St Mary's Fair
TTITLE1=All I Want For Christmas Is The Rain
TTITLE2=One Child Born
TTITLE3=Greedy Guts
TTITLE4=Three-Legged Man
TTITLE5=An Ant's Eye View
TTITLE6=I Believe In Santa Claus
TTITLE7=There's A Monkey Sitting In My Family Tree
TTITLE8=Listen To The Wind
TTITLE9=Little Red Car
TTITLE10=Time Out For Christmas
TTITLE11=Showtime
TTITLE12=Son Of A Son Of A Son Of A Railway Man
TTITLE13=Funny Old Christmas
TTITLE14=The Twentieth Century Is Almost Over
EXTD=
EXTT0=
EXTT1=
EXTT2=
EXTT3=
EXTT4=
EXTT5=
EXTT6=
EXTT7=
EXTT8=
EXTT9=
EXTT10=
EXTT11=
EXTT12=
EXTT13=
EXTT14=
PLAYORDER=
